<svg width="18" height="18" viewBox="0 0 18 18" fill="none" xmlns="http://www.w3.org/2000/svg">
<path d="M15.1875 2.81259V15.7501C15.1875 15.8993 15.1282 16.0424 15.0227 16.1478C14.9173 16.2533 14.7742 16.3126 14.625 16.3126C14.4758 16.3126 14.3327 16.2533 14.2273 16.1478C14.1218 16.0424 14.0625 15.8993 14.0625 15.7501V12.3751H10.6875C10.5383 12.3751 10.3952 12.3158 10.2898 12.2103C10.1843 12.1049 10.125 11.9618 10.125 11.8126C10.1511 10.4652 10.3213 9.12443 10.6327 7.81322C11.3203 4.96627 12.6239 3.05798 14.4035 2.2958C14.4891 2.25916 14.5823 2.24431 14.675 2.25258C14.7677 2.26086 14.8569 2.292 14.9346 2.34321C15.0123 2.39443 15.076 2.46412 15.1202 2.54603C15.1643 2.62795 15.1875 2.71954 15.1875 2.81259ZM8.42977 2.72048C8.41875 2.64662 8.39314 2.5757 8.35442 2.51184C8.3157 2.44798 8.26466 2.39247 8.20426 2.34855C8.14387 2.30463 8.07533 2.27317 8.00266 2.25601C7.92998 2.23886 7.85461 2.23634 7.78095 2.24862C7.70728 2.2609 7.63681 2.28772 7.57362 2.32752C7.51043 2.36732 7.4558 2.41931 7.41292 2.48044C7.37003 2.54158 7.33975 2.61064 7.32384 2.6836C7.30793 2.75656 7.3067 2.83196 7.32023 2.90541L7.86727 6.18759H6.1875V2.81259C6.1875 2.66341 6.12824 2.52033 6.02275 2.41485C5.91726 2.30936 5.77418 2.25009 5.625 2.25009C5.47582 2.25009 5.33274 2.30936 5.22725 2.41485C5.12176 2.52033 5.0625 2.66341 5.0625 2.81259V6.18759H3.38273L3.92977 2.90541C3.9433 2.83196 3.94207 2.75656 3.92616 2.6836C3.91025 2.61064 3.87997 2.54158 3.83708 2.48044C3.7942 2.41931 3.73957 2.36732 3.67638 2.32752C3.61319 2.28772 3.54272 2.2609 3.46905 2.24862C3.39539 2.23634 3.32002 2.23886 3.24735 2.25601C3.17467 2.27317 3.10613 2.30463 3.04574 2.34855C2.98534 2.39247 2.9343 2.44798 2.89558 2.51184C2.85686 2.5757 2.83125 2.64662 2.82023 2.72048L2.25773 6.09548C2.25269 6.12593 2.2501 6.15673 2.25 6.18759C2.25112 6.9848 2.534 7.75596 3.04866 8.36479C3.56331 8.97362 4.2766 9.38095 5.0625 9.51478V15.7501C5.0625 15.8993 5.12176 16.0424 5.22725 16.1478C5.33274 16.2533 5.47582 16.3126 5.625 16.3126C5.77418 16.3126 5.91726 16.2533 6.02275 16.1478C6.12824 16.0424 6.1875 15.8993 6.1875 15.7501V9.51478C6.9734 9.38095 7.68669 8.97362 8.20134 8.36479C8.716 7.75596 8.99888 6.9848 9 6.18759C8.9999 6.15673 8.99731 6.12593 8.99227 6.09548L8.42977 2.72048Z" fill="#1F8459"/>
</svg>
