<svg width="102" height="32" viewBox="0 0 102 32" fill="none" xmlns="http://www.w3.org/2000/svg">
<path fill-rule="evenodd" clip-rule="evenodd" d="M17.3482 4.68165C17.9763 4.0535 18.9947 4.0535 19.6229 4.68165L25.505 10.5639L19.5961 16.2043C18.9535 16.8176 17.9354 16.794 17.322 16.1514C16.7087 15.5088 16.7323 14.4907 17.3749 13.8773L19.1891 12.1456H15.2686C12.1299 12.1456 9.5854 14.69 9.5854 17.8288C9.5854 20.9675 12.1299 23.5119 15.2686 23.5119H23.2036C24.0918 23.5119 24.8122 24.232 24.8122 25.1205C24.8122 26.0087 24.0918 26.7288 23.2036 26.7288H15.2686C10.3532 26.7288 6.36853 22.7442 6.36853 17.8288C6.36853 12.9134 10.3532 8.92866 15.2686 8.92866H19.3205L17.3482 6.95635C16.72 6.32821 16.72 5.3098 17.3482 4.68165Z" fill="#1F8459"/>
<path d="M37.6763 14.6548C38.0095 14.1206 38.4415 13.7018 38.9722 13.3983C39.5153 13.0948 40.1324 12.9431 40.8236 12.9431V15.6199H40.1386C39.324 15.6199 38.7069 15.808 38.2872 16.1843C37.8799 16.5607 37.6763 17.2162 37.6763 18.151V23.1767H35.0844V13.0887H37.6763V14.6548Z" fill="#1F8459"/>
<path d="M52.1039 17.9142C52.1039 18.2784 52.0792 18.6062 52.0299 18.8975H44.5318C44.5935 19.6259 44.8527 20.1965 45.3094 20.6092C45.7661 21.022 46.3276 21.2283 46.9941 21.2283C47.9569 21.2283 48.6419 20.8217 49.0492 20.0083H51.8447C51.5485 20.9795 50.9807 21.7807 50.1415 22.412C49.3022 23.0311 48.2716 23.3406 47.0497 23.3406C46.0623 23.3406 45.1736 23.1282 44.3837 22.7033C43.6061 22.2663 42.9952 21.6532 42.5509 20.8642C42.1189 20.0751 41.9029 19.1646 41.9029 18.1327C41.9029 17.0887 42.1189 16.1722 42.5509 15.3831C42.9828 14.5941 43.5876 13.9871 44.3652 13.5622C45.1428 13.1373 46.0376 12.9249 47.0497 12.9249C48.0247 12.9249 48.8949 13.1312 49.6601 13.544C50.4377 13.9567 51.0363 14.5455 51.4559 15.3103C51.8879 16.0629 52.1039 16.9309 52.1039 17.9142ZM49.4194 17.1859C49.4071 16.5303 49.1664 16.0083 48.6974 15.6199C48.2284 15.2192 47.6545 15.0189 46.9756 15.0189C46.3338 15.0189 45.7907 15.2132 45.3464 15.6016C44.9144 15.978 44.6491 16.506 44.5503 17.1859H49.4194Z" fill="#1F8459"/>
<path d="M58.6983 15.1828H56.9024V23.1767H54.2735V15.1828H53.1071V13.0887H54.2735V12.5789C54.2735 11.3406 54.6314 10.4302 55.3473 9.84748C56.0631 9.26478 57.1431 8.99164 58.5872 9.02805V11.1768C57.9577 11.1646 57.5195 11.2678 57.2727 11.4863C57.0259 11.7048 56.9024 12.0994 56.9024 12.6699V13.0887H58.6983V15.1828Z" fill="#1F8459"/>
<path d="M70.0606 13.0887V23.1767H67.4502V21.9021C67.1169 22.3391 66.6788 22.6851 66.1357 22.94C65.605 23.1828 65.0249 23.3042 64.3954 23.3042C63.5931 23.3042 62.8834 23.1403 62.2663 22.8126C61.6492 22.4726 61.1617 21.981 60.8037 21.3376C60.4582 20.6821 60.2854 19.9051 60.2854 19.0068V13.0887H62.8773V18.6426C62.8773 19.4438 63.0809 20.0629 63.4882 20.5C63.8955 20.9249 64.4509 21.1373 65.1545 21.1373C65.8703 21.1373 66.4319 20.9249 66.8392 20.5C67.2465 20.0629 67.4502 19.4438 67.4502 18.6426V13.0887H70.0606Z" fill="#1F8459"/>
<path d="M78.3016 12.9431C79.5235 12.9431 80.5109 13.3255 81.2638 14.0903C82.0167 14.8429 82.3931 15.8991 82.3931 17.2587V23.1767H79.8012V17.6047C79.8012 16.8035 79.5976 16.1904 79.1903 15.7655C78.783 15.3285 78.2276 15.11 77.5241 15.11C76.8082 15.11 76.2404 15.3285 75.8208 15.7655C75.4135 16.1904 75.2098 16.8035 75.2098 17.6047V23.1767H72.6179V13.0887H75.2098V14.3452C75.5554 13.9082 75.9936 13.5683 76.5243 13.3255C77.0674 13.0705 77.6598 12.9431 78.3016 12.9431Z" fill="#1F8459"/>
<path d="M84.1914 18.0963C84.1914 17.0766 84.3951 16.1722 84.8024 15.3831C85.222 14.5941 85.7898 13.9871 86.5056 13.5622C87.2215 13.1373 88.0176 12.9249 88.8939 12.9249C89.5604 12.9249 90.196 13.0705 90.8008 13.3619C91.4056 13.6411 91.8869 14.0174 92.2449 14.4909V9.7018H94.8738V23.1767H92.2449V21.6836C91.924 22.1813 91.4735 22.5819 90.8934 22.8854C90.3133 23.1889 89.6406 23.3406 88.8754 23.3406C88.0114 23.3406 87.2215 23.1221 86.5056 22.6851C85.7898 22.2481 85.222 21.635 84.8024 20.8459C84.3951 20.0447 84.1914 19.1282 84.1914 18.0963ZM92.2634 18.1327C92.2634 17.5136 92.14 16.9856 91.8931 16.5485C91.6463 16.0994 91.313 15.7595 90.8934 15.5288C90.4737 15.286 90.0232 15.1646 89.5419 15.1646C89.0605 15.1646 88.6162 15.2799 88.2089 15.5106C87.8016 15.7412 87.4684 16.0812 87.2092 16.5303C86.9623 16.9673 86.8389 17.4893 86.8389 18.0963C86.8389 18.7033 86.9623 19.2374 87.2092 19.6988C87.4684 20.1479 87.8016 20.4939 88.2089 20.7367C88.6285 20.9795 89.0729 21.1009 89.5419 21.1009C90.0232 21.1009 90.4737 20.9855 90.8934 20.7549C91.313 20.5121 91.6463 20.1722 91.8931 19.7352C92.14 19.286 92.2634 18.7519 92.2634 18.1327Z" fill="#1F8459"/>
</svg>
