<svg width="18" height="18" viewBox="0 0 18 18" fill="none" xmlns="http://www.w3.org/2000/svg">
<path d="M15.1875 2.8125H2.8125C2.51413 2.8125 2.22798 2.93103 2.017 3.142C1.80603 3.35298 1.6875 3.63913 1.6875 3.9375V14.625C1.68755 14.7209 1.71211 14.8151 1.75883 14.8989C1.80556 14.9826 1.87291 15.0529 1.95448 15.1033C2.03606 15.1537 2.12915 15.1824 2.22493 15.1866C2.3207 15.1909 2.41598 15.1706 2.50172 15.1277L4.5 14.1286L6.49828 15.1277C6.57643 15.1668 6.66261 15.1872 6.75 15.1872C6.83739 15.1872 6.92357 15.1668 7.00172 15.1277L9 14.1286L10.9983 15.1277C11.0764 15.1668 11.1626 15.1872 11.25 15.1872C11.3374 15.1872 11.4236 15.1668 11.5017 15.1277L13.5 14.1286L15.4983 15.1277C15.584 15.1706 15.6793 15.1909 15.7751 15.1866C15.8708 15.1824 15.9639 15.1537 16.0455 15.1033C16.1271 15.0529 16.1944 14.9826 16.2412 14.8989C16.2879 14.8151 16.3124 14.7209 16.3125 14.625V3.9375C16.3125 3.63913 16.194 3.35298 15.983 3.142C15.772 2.93103 15.4859 2.8125 15.1875 2.8125ZM12.375 10.125H5.625C5.47582 10.125 5.33274 10.0657 5.22725 9.96025C5.12176 9.85476 5.0625 9.71168 5.0625 9.5625C5.0625 9.41332 5.12176 9.27024 5.22725 9.16475C5.33274 9.05926 5.47582 9 5.625 9H12.375C12.5242 9 12.6673 9.05926 12.7727 9.16475C12.8782 9.27024 12.9375 9.41332 12.9375 9.5625C12.9375 9.71168 12.8782 9.85476 12.7727 9.96025C12.6673 10.0657 12.5242 10.125 12.375 10.125ZM12.375 7.875H5.625C5.47582 7.875 5.33274 7.81574 5.22725 7.71025C5.12176 7.60476 5.0625 7.46168 5.0625 7.3125C5.0625 7.16332 5.12176 7.02024 5.22725 6.91475C5.33274 6.80926 5.47582 6.75 5.625 6.75H12.375C12.5242 6.75 12.6673 6.80926 12.7727 6.91475C12.8782 7.02024 12.9375 7.16332 12.9375 7.3125C12.9375 7.46168 12.8782 7.60476 12.7727 7.71025C12.6673 7.81574 12.5242 7.875 12.375 7.875Z" fill="#1F8459"/>
</svg>
