<svg width="24" height="24" viewBox="0 0 24 24" fill="none" xmlns="http://www.w3.org/2000/svg">
<path d="M16.7194 15.5306L15 13.8103V19.5C15 19.6989 14.921 19.8897 14.7804 20.0303C14.6397 20.171 14.4489 20.25 14.25 20.25C14.0511 20.25 13.8604 20.171 13.7197 20.0303C13.5791 19.8897 13.5 19.6989 13.5 19.5V13.8103L11.7807 15.5306C11.711 15.6003 11.6283 15.6556 11.5372 15.6933C11.4462 15.731 11.3486 15.7504 11.25 15.7504C11.1515 15.7504 11.0539 15.731 10.9629 15.6933C10.8718 15.6556 10.7891 15.6003 10.7194 15.5306C10.6497 15.4609 10.5945 15.3782 10.5567 15.2872C10.519 15.1961 10.4996 15.0985 10.4996 15C10.4996 14.9015 10.519 14.8039 10.5567 14.7128C10.5945 14.6218 10.6497 14.5391 10.7194 14.4694L13.7194 11.4694C13.7891 11.3996 13.8718 11.3443 13.9628 11.3066C14.0539 11.2688 14.1515 11.2494 14.25 11.2494C14.3486 11.2494 14.4462 11.2688 14.5372 11.3066C14.6283 11.3443 14.711 11.3996 14.7807 11.4694L17.7807 14.4694C17.8503 14.5391 17.9056 14.6218 17.9433 14.7128C17.981 14.8039 18.0005 14.9015 18.0005 15C18.0005 15.0985 17.981 15.1961 17.9433 15.2872C17.9056 15.3782 17.8503 15.4609 17.7807 15.5306C17.711 15.6003 17.6283 15.6556 17.5372 15.6933C17.4462 15.731 17.3486 15.7504 17.25 15.7504C17.1515 15.7504 17.0539 15.731 16.9629 15.6933C16.8718 15.6556 16.7891 15.6003 16.7194 15.5306ZM15 3.75C13.4677 3.75116 11.966 4.17864 10.6628 4.98463C9.35962 5.79061 8.3064 6.94331 7.62097 8.31375C6.8049 8.19383 5.97287 8.24346 5.17684 8.45954C4.38081 8.67563 3.63788 9.05352 2.99446 9.56962C2.35103 10.0857 1.82093 10.7289 1.43726 11.4591C1.05359 12.1893 0.824591 12.9907 0.764566 13.8134C0.704541 14.636 0.814779 15.4622 1.0884 16.2403C1.36201 17.0185 1.79313 17.7318 2.35482 18.3359C2.91652 18.9399 3.59672 19.4216 4.35295 19.751C5.10918 20.0803 5.9252 20.2502 6.75004 20.25H10.5C10.6989 20.25 10.8897 20.171 11.0304 20.0303C11.171 19.8897 11.25 19.6989 11.25 19.5C11.25 19.3011 11.171 19.1103 11.0304 18.9697C10.8897 18.829 10.6989 18.75 10.5 18.75H6.75004C5.55656 18.75 4.41197 18.2759 3.56806 17.432C2.72414 16.5881 2.25004 15.4435 2.25004 14.25C2.25004 13.0565 2.72414 11.9119 3.56806 11.068C4.41197 10.2241 5.55656 9.75 6.75004 9.75C6.85316 9.75 6.95629 9.75 7.05847 9.76125C6.85345 10.4898 6.74967 11.2431 6.75004 12C6.75004 12.1989 6.82905 12.3897 6.96971 12.5303C7.11036 12.671 7.30112 12.75 7.50004 12.75C7.69895 12.75 7.88971 12.671 8.03037 12.5303C8.17102 12.3897 8.25004 12.1989 8.25004 12C8.25022 10.7831 8.57938 9.58886 9.20268 8.54369C9.82598 7.49852 10.7202 6.64129 11.7908 6.06272C12.8614 5.48415 14.0685 5.20576 15.2843 5.25701C16.5001 5.30826 17.6795 5.68724 18.6976 6.35385C19.7157 7.02046 20.5346 7.94989 21.0678 9.04381C21.6009 10.1377 21.8284 11.3554 21.7262 12.568C21.624 13.7806 21.1958 14.9431 20.4871 15.9323C19.7783 16.9215 18.8154 17.7007 17.7 18.1875C17.5417 18.2562 17.4118 18.3773 17.3324 18.5306C17.253 18.6839 17.2289 18.8598 17.2641 19.0288C17.2994 19.1978 17.3918 19.3494 17.5259 19.4581C17.66 19.5669 17.8274 19.626 18 19.6256C18.1034 19.6255 18.2056 19.6038 18.3 19.5619C20.0375 18.804 21.461 17.4708 22.3311 15.7867C23.2012 14.1025 23.4647 12.1701 23.0775 10.3145C22.6902 8.45888 21.6757 6.79322 20.2046 5.59768C18.7336 4.40215 16.8957 3.74967 15 3.75Z" fill="white"/>
</svg>
