<svg width="18" height="18" viewBox="0 0 18 18" fill="none" xmlns="http://www.w3.org/2000/svg">
<path d="M16.3125 6.7501C16.3134 7.59204 16.1042 8.42089 15.704 9.16162C15.3038 9.90235 14.7252 10.5316 14.0205 10.9923C13.3158 11.4531 12.5074 11.7308 11.6683 11.8004C10.8293 11.8699 9.9861 11.7291 9.21517 11.3907L5.5547 15.6249C5.54627 15.6348 5.53642 15.6453 5.52728 15.6545C5.10528 16.0765 4.53291 16.3136 3.93611 16.3136C3.3393 16.3136 2.76694 16.0765 2.34494 15.6545C1.92293 15.2325 1.68585 14.6601 1.68585 14.0633C1.68585 13.4665 1.92293 12.8941 2.34494 12.4721C2.35478 12.463 2.36462 12.4532 2.37517 12.4447L6.60939 8.78495C6.23003 7.91716 6.10145 6.96042 6.23824 6.02326C6.37503 5.08611 6.77172 4.20604 7.3833 3.48289C7.99488 2.75974 8.79688 2.22245 9.69832 1.93197C10.5998 1.6415 11.5646 1.60945 12.4833 1.83948C12.578 1.86322 12.6649 1.9112 12.7354 1.9787C12.806 2.04621 12.8577 2.13091 12.8856 2.22448C12.9135 2.31805 12.9165 2.41727 12.8945 2.51238C12.8724 2.60748 12.8259 2.6952 12.7596 2.7669L10.125 5.6251L10.523 7.47784L12.375 7.8751L15.2332 5.23698C15.3049 5.17071 15.3926 5.12424 15.4877 5.10215C15.5828 5.08006 15.6821 5.0831 15.7756 5.11098C15.8692 5.13886 15.9539 5.19062 16.0214 5.26116C16.0889 5.3317 16.1369 5.4186 16.1606 5.51331C16.2616 5.91782 16.3126 6.33318 16.3125 6.7501Z" fill="#1F8459"/>
</svg>
